<svg width="28" height="25" viewBox="0 0 28 25" fill="none" xmlns="http://www.w3.org/2000/svg">
<path d="M14.25 23.5V14.6689M7.12812 3.51929L3.93267 4.68462M3.93267 4.68462L14.25 8.4476M3.93267 4.68462L1.59134 8.3936C1.39555 8.7041 1.52686 9.1144 1.86745 9.256L11.0387 13.0793C11.3213 13.1966 11.6478 13.0851 11.7961 12.8199L14.25 8.4476M14.25 8.4476L24.5673 4.68462M14.25 8.4476L16.7039 12.8205C16.8522 13.0851 17.1787 13.1971 17.4613 13.0793L19.02 12.4293M24.5673 4.68462L14.665 1.07312C14.3971 0.975627 14.1029 0.975627 13.835 1.07312L11.0487 2.08931M24.5673 4.68462L26.9087 8.3936C27.1045 8.7041 26.9732 9.1144 26.6326 9.256L21.9962 11.1886M24.5673 13.7798V18.9083C24.5673 19.4063 24.2537 19.8514 23.7818 20.0232L14.665 23.3486C14.3971 23.446 14.1029 23.446 13.835 23.3486L4.7182 20.0232C4.2463 19.8508 3.93267 19.4063 3.93267 18.9083V13.6069" stroke="#E5A500" stroke-width="1.5" stroke-miterlimit="10" stroke-linecap="round" stroke-linejoin="round"/>
</svg>
